<svg width="180" height="220" viewBox="0 0 180 220" xmlns="http://www.w3.org/2000/svg" aria-label="F#7">
  <g transform="translate(0, 10)">
    <rect width="180" height="200" fill="#fff"/>

    <!-- Letras das cordas -->
    <text x="40" y="12" font-size="14" font-family="Arial" fill="#000" text-anchor="middle">E</text>
    <text x="60" y="12" font-size="14" font-family="Arial" fill="#000" text-anchor="middle">A</text>
    <text x="80" y="12" font-size="14" font-family="Arial" fill="#000" text-anchor="middle">D</text>
    <text x="100" y="12" font-size="14" font-family="Arial" fill="#000" text-anchor="middle">G</text>
    <text x="120" y="12" font-size="14" font-family="Arial" fill="#000" text-anchor="middle">B</text>
    <text x="140" y="12" font-size="14" font-family="Arial" fill="#000" text-anchor="middle">E</text>

    <!-- Cordas -->
    <line x1="40" y1="30" x2="40" y2="200" stroke="#000" stroke-width="1"/>
    <line x1="60" y1="30" x2="60" y2="200" stroke="#000" stroke-width="1"/>
    <line x1="80" y1="30" x2="80" y2="200" stroke="#000" stroke-width="1"/>
    <line x1="100" y1="30" x2="100" y2="200" stroke="#000" stroke-width="1"/>
    <line x1="120" y1="30" x2="120" y2="200" stroke="#000" stroke-width="1"/>
    <line x1="140" y1="30" x2="140" y2="200" stroke="#000" stroke-width="1"/>

    <!-- Trastes -->
    <line x1="40" y1="40" x2="140" y2="40" stroke="#000" stroke-width="5"/>
    <line x1="40" y1="65" x2="140" y2="65" stroke="#000" stroke-width="1"/>
    <line x1="40" y1="90" x2="140" y2="90" stroke="#000" stroke-width="1"/>
    <line x1="40" y1="115" x2="140" y2="115" stroke="#000" stroke-width="1"/>
    <line x1="40" y1="140" x2="140" y2="140" stroke="#000" stroke-width="1"/>
    <line x1="40" y1="165" x2="140" y2="165" stroke="#000" stroke-width="1"/>

    <!-- Números das casas -->
    <text x="20" y="60" font-size="12" font-family="Arial" fill="#000">1</text>
    <text x="20" y="85" font-size="12" font-family="Arial" fill="#000">2</text>
    <text x="20" y="110" font-size="12" font-family="Arial" fill="#000">3</text>
    <text x="20" y="135" font-size="12" font-family="Arial" fill="#000">4</text>
    <text x="20" y="160" font-size="12" font-family="Arial" fill="#000">5</text>

    <!-- Bolinhas topo -->
    <circle cx="40" cy="25" r="5" fill="black"/>
    <circle cx="60" cy="25" r="5" fill="white" stroke="#000" stroke-width="1"/>
    <circle cx="80" cy="25" r="5" fill="white" stroke="#000" stroke-width="1"/>
    <circle cx="100" cy="25" r="5" fill="white" stroke="#000" stroke-width="1"/>
    <circle cx="120" cy="25" r="5" fill="white" stroke="#000" stroke-width="1"/>
    <circle cx="140" cy="25" r="5" fill="white" stroke="#000" stroke-width="1"/>

    <!-- Pestana casa 2 -->
    <rect x="40" y="73" width="100" height="10" rx="5" ry="5" fill="#D42D2D"/>
    <text x="90" y="81" font-size="12" font-family="Arial" fill="#fff" text-anchor="middle" font-weight="bold">1</text>

    <!-- Dedo 2 na 4ª corda, casa 3 -->
    <circle cx="100" cy="102" r="8" fill="#D42D2D"/>
    <text x="100" y="107" font-size="12" font-family="Arial" fill="#fff" text-anchor="middle" font-weight="bold">2</text>

    <!-- Dedo 3 na 5ª corda, casa 4 -->
    <circle cx="60" cy="127" r="8" fill="#D42D2D"/>
    <text x="60" y="132" font-size="12" font-family="Arial" fill="#fff" text-anchor="middle" font-weight="bold">3</text>
  </g>
</svg>
